# xmcd CD database file generated by Grip 3.2.0
# 
# Track frame offsets:
#       150
#       20157
#       33970
#       48562
#       64472
#       80082
#       101175
#       116415
#       133592
#       150525
# 
# Disc length: 2251 seconds
# 
# Revision: 22
# Processed by: cddbd v1.5.2PL0 Copyright (c) Steve Scherf et al.
# Submitted via: Grip 3.2.0
# 
DISCID=8a08c90a
DTITLE=Aerosmith - Greatest Hits
DYEAR=1980
DGENRE=Rock
TTITLE0=Dream On
TTITLE1=Same Old Song And Dance
TTITLE2=Sweet Emotion
TTITLE3=Walk This Way
TTITLE4=Last Child
TTITLE5=Back In The Saddle
TTITLE6=Draw The Line
TTITLE7=Kings And Queens
TTITLE8=Come Together
TTITLE9=Remember Walking In The Sand
EXTD=Columbia Year: 1980 Catalog Number: CK 36865 Columbia Year: 1980 Catal
EXTD=og Number: CK 36865 YEAR: 1986
EXTT0=
EXTT1=
EXTT2=
EXTT3=
EXTT4=
EXTT5=
EXTT6=
EXTT7=
EXTT8=
EXTT9=
PLAYORDER=
